<svg width="23" height="17" viewBox="0 0 23 17" fill="none" xmlns="http://www.w3.org/2000/svg">
<path d="M22.4286 2.24228L8.42861 16.2423C8.30667 16.3646 8.16178 16.4617 8.00224 16.528C7.84271 16.5942 7.67166 16.6283 7.49892 16.6283C7.32618 16.6283 7.15513 16.5942 6.9956 16.528C6.83606 16.4617 6.69117 16.3646 6.56923 16.2423L0.444232 10.1173C0.322144 9.99519 0.225298 9.85025 0.159224 9.69073C0.0931507 9.53122 0.0591431 9.36025 0.0591431 9.18759C0.0591431 9.01493 0.0931507 8.84396 0.159224 8.68445C0.225298 8.52493 0.322144 8.37999 0.444232 8.2579C0.566321 8.13581 0.71126 8.03897 0.870776 7.97289C1.03029 7.90682 1.20126 7.87281 1.37392 7.87281C1.54658 7.87281 1.71755 7.90682 1.87706 7.97289C2.03658 8.03897 2.18152 8.13581 2.30361 8.2579L7.50001 13.4543L20.5714 0.385089C20.818 0.13852 21.1524 0 21.5011 0C21.8498 0 22.1842 0.13852 22.4308 0.385089C22.6774 0.631657 22.8159 0.966076 22.8159 1.31478C22.8159 1.66348 22.6774 1.9979 22.4308 2.24446L22.4286 2.24228Z" fill="black"/>
</svg>
