<svg xmlns="http://www.w3.org/2000/svg" version="1.1" xmlns:xlink="http://www.w3.org/1999/xlink" xmlns:svgjs="http://svgjs.com/svgjs" width="52" height="52"><svg width="52" height="52" viewBox="0 0 52 52" fill="none" stroke="rbg(255,255,255)" xmlns="http://www.w3.org/2000/svg">
<path d="M19.5083 39.8889H32.4889M26 1V3.77778M43.6778 8.32222L41.7139 10.2861M51 26H48.2222M3.77778 26H1M10.2861 10.2861L8.32222 8.32222M16.1778 35.8222C14.2357 33.8797 12.9133 31.4049 12.3777 28.7108C11.8421 26.0167 12.1174 23.2243 13.1687 20.6867C14.22 18.149 16.0002 15.9801 18.2841 14.4541C20.5681 12.9282 23.2532 12.1137 26 12.1137C28.7468 12.1137 31.4319 12.9282 33.7159 14.4541C35.9998 15.9801 37.78 18.149 38.8313 20.6867C39.8826 23.2243 40.1579 26.0167 39.6223 28.7108C39.0867 31.4049 37.7643 33.8797 35.8222 35.8222L34.3 37.3417C33.4297 38.2121 32.7395 39.2454 32.2686 40.3826C31.7977 41.5198 31.5554 42.7386 31.5556 43.9694V45.4444C31.5556 46.9179 30.9702 48.3309 29.9284 49.3728C28.8865 50.4147 27.4734 51 26 51C24.5266 51 23.1135 50.4147 22.0716 49.3728C21.0298 48.3309 20.4444 46.9179 20.4444 45.4444V43.9694C20.4444 41.4833 19.4556 39.0972 17.7 37.3417L16.1778 35.8222Z" stroke="black" stroke-width="2" stroke-linecap="round" stroke-linejoin="round"></path>
</svg><style>@media (prefers-color-scheme: light) { :root { filter: none; } }
@media (prefers-color-scheme: dark) { :root { filter: invert(100%); } }
</style></svg>