<?xml version="1.0" standalone="no"?>
<!DOCTYPE svg PUBLIC "-//W3C//DTD SVG 20010904//EN"
 "http://www.w3.org/TR/2001/REC-SVG-20010904/DTD/svg10.dtd">
<svg version="1.0" xmlns="http://www.w3.org/2000/svg"
 width="700.000000pt" height="700.000000pt" viewBox="0 0 700.000000 700.000000"
 preserveAspectRatio="xMidYMid meet">
<metadata>
Created by potrace 1.14, written by Peter Selinger 2001-2017
</metadata>
<g transform="translate(0.000000,700.000000) scale(0.100000,-0.100000)"
fill="#000000" stroke="none">
<path d="M3435 6982 c-65 -40 -68 -54 -69 -292 -1 -118 2 -227 7 -241 19 -60
101 -104 162 -88 40 11 85 59 94 100 4 19 7 124 6 234 -1 152 -5 207 -16 230
-31 65 -124 93 -184 57z"/>
<path d="M1095 6010 c-83 -18 -131 -103 -100 -177 15 -34 286 -313 325 -333
100 -53 214 29 195 140 -6 36 -24 58 -153 188 -81 81 -154 153 -164 160 -25
20 -70 29 -103 22z"/>
<path d="M5831 6004 c-38 -16 -328 -305 -341 -339 -43 -114 83 -224 190 -165
42 23 310 297 324 332 22 51 4 119 -41 152 -37 27 -95 36 -132 20z"/>
<path d="M3397 5503 c-1 0 -38 -4 -82 -8 -205 -18 -472 -90 -664 -181 -474
-223 -844 -623 -1026 -1109 -41 -109 -100 -331 -109 -410 -10 -83 -20 -246
-20 -315 1 -410 154 -861 401 -1183 77 -100 80 -103 265 -292 224 -229 265
-279 338 -424 82 -163 111 -302 115 -556 3 -176 8 -251 20 -318 11 -58 52
-172 86 -235 128 -240 345 -402 614 -458 51 -10 237 -13 298 -4 319 46 598
281 701 590 37 112 46 190 50 425 2 117 6 217 9 222 3 4 8 29 12 53 9 62 58
207 96 282 63 125 126 205 319 403 259 265 361 399 469 613 80 160 157 386
181 537 5 33 12 70 14 83 17 85 24 330 13 457 -22 242 -92 491 -201 710 -104
210 -220 371 -391 540 -368 365 -854 569 -1380 578 -70 1 -127 1 -128 0z m272
-277 c409 -44 767 -213 1053 -498 244 -242 409 -548 477 -883 28 -140 34 -201
34 -350 0 -113 -3 -155 -18 -250 -2 -11 -6 -40 -9 -64 -3 -23 -8 -46 -11 -50
-2 -4 -7 -23 -10 -42 -13 -73 -82 -259 -135 -364 -45 -90 -138 -243 -160 -265
-3 -3 -23 -27 -45 -55 -22 -27 -117 -129 -211 -225 -95 -96 -183 -188 -195
-205 -13 -16 -26 -32 -30 -35 -4 -3 -32 -43 -63 -90 l-57 -85 -790 0 -791 0
-34 57 c-56 91 -115 160 -313 363 -207 211 -273 294 -367 458 -90 156 -171
373 -199 532 -2 17 -7 39 -9 50 -18 91 -25 347 -12 451 29 237 96 455 198 644
38 70 105 178 118 190 3 3 25 32 50 65 60 81 209 229 306 301 270 204 572 322
899 350 39 4 71 7 72 8 4 4 206 -3 252 -8z m501 -3738 c0 -3 -9 -44 -20 -90
-28 -120 -31 -151 -36 -381 -2 -115 -6 -218 -8 -230 -3 -12 -7 -33 -10 -46
-40 -180 -182 -348 -361 -424 -188 -80 -412 -55 -590 66 -106 72 -217 234
-239 347 -3 19 -9 46 -11 60 -3 14 -7 115 -9 225 -4 218 -8 258 -37 383 -10
46 -19 87 -19 90 0 4 302 7 670 7 369 0 670 -3 670 -7z"/>
<path d="M93 3626 c-61 -19 -98 -76 -89 -137 7 -52 19 -73 57 -100 31 -21 41
-23 243 -24 116 0 224 3 240 7 66 17 112 97 94 164 -11 43 -70 94 -111 95
-142 5 -412 2 -434 -5z"/>
<path d="M6453 3628 c-39 -10 -84 -59 -92 -100 -15 -68 33 -142 100 -157 19
-4 124 -6 234 -6 218 1 240 6 279 58 29 39 29 115 0 154 -38 51 -59 56 -285
57 -115 1 -221 -2 -236 -6z"/>
</g>
</svg>
